<?xml version="1.0" standalone="no"?>
<!DOCTYPE svg PUBLIC "-//W3C//DTD SVG 20010904//EN"
 "http://www.w3.org/TR/2001/REC-SVG-20010904/DTD/svg10.dtd">
<svg version="1.0" xmlns="http://www.w3.org/2000/svg"
 width="400.000000pt" height="101.000000pt" viewBox="0 0 400.000000 101.000000"
 preserveAspectRatio="xMidYMid meet">
<metadata>
Created by potrace 1.16, written by Peter Selinger 2001-2019
</metadata>
<g transform="translate(0.000000,101.000000) scale(0.100000,-0.100000)"
fill="#000000" stroke="none">
<path d="M3473 858 c-23 -47 -43 -109 -43 -131 0 -12 -16 -68 -35 -124 -21
-60 -35 -122 -35 -150 0 -82 24 -77 -372 -78 l-353 0 -2 70 c-5 119 -10 137
-40 133 -34 -4 -63 -44 -70 -95 -4 -33 -1 -45 16 -62 11 -11 27 -18 36 -15 10
4 15 0 15 -15 l0 -21 -533 0 c-633 0 -776 5 -770 29 2 9 -3 35 -11 58 l-15 42
30 10 c41 14 39 43 -3 39 l-32 -3 -11 65 c-14 87 -31 85 -60 -9 -25 -79 -36
-96 -63 -96 -9 0 -18 -8 -20 -17 -2 -11 3 -18 12 -18 18 0 21 -15 6 -25 -16
-10 -12 -45 5 -45 9 0 23 16 32 35 9 20 28 38 43 44 26 9 28 7 40 -32 7 -23
17 -48 22 -54 8 -10 -40 -13 -236 -13 -244 0 -246 0 -246 21 0 18 4 20 26 15
77 -20 86 -20 82 0 -2 13 -15 21 -41 25 -47 8 -54 15 -35 36 51 59 11 137 -46
92 -24 -19 -26 -26 -26 -104 l0 -84 -102 -3 c-84 -2 -103 -6 -103 -18 0 -13
119 -15 1003 -18 614 -1 1002 -6 1002 -11 0 -6 -4 -12 -9 -15 -13 -9 -19 -52
-9 -70 5 -9 22 -16 37 -16 30 0 44 19 59 80 8 34 9 34 21 13 15 -29 45 -31 38
-3 -5 19 1 20 416 22 367 3 422 5 422 18 0 11 -14 16 -57 18 -32 2 -58 6 -58
9 0 3 11 21 25 39 14 18 33 56 42 84 11 34 21 50 33 50 12 0 22 18 35 63 11
34 29 87 42 118 l22 57 -20 41 c-18 37 -23 41 -58 41 -29 0 -40 -5 -48 -22z"/>
<path d="M1544 645 c-16 -24 -16 -29 -3 -39 20 -15 43 -154 28 -172 -6 -7 -8
-18 -4 -24 15 -25 104 -1 139 38 22 25 32 97 17 134 -14 37 -73 79 -120 85
-34 5 -41 2 -57 -22z"/>
<path d="M1989 554 c-19 -20 -24 -36 -24 -81 0 -62 15 -80 57 -70 33 9 74 83
65 120 -15 59 -59 73 -98 31z"/>
<path d="M2345 556 c-28 -28 -42 -88 -29 -125 8 -21 16 -26 44 -26 28 0 38 6
57 34 29 42 30 94 3 121 -26 26 -46 25 -75 -4z"/>
</g>
</svg>
